<svg xmlns="http://www.w3.org/2000/svg" viewBox="0 0 491.71 638.47"><defs><style>.cls-1{fill:#ffddc0;}.cls-2{fill:#e9a391;}.cls-3{fill:#ffc360;}.cls-3,.cls-5{stroke:#411f30;stroke-width:3px;}.cls-15,.cls-17,.cls-3,.cls-5,.cls-9{stroke-miterlimit:10;}.cls-4{fill:#f4f1f3;}.cls-15,.cls-17,.cls-5,.cls-9{fill:none;}.cls-6{fill:#e98165;}.cls-7{fill:#f7b988;}.cls-8{fill:#cc5654;}.cls-15,.cls-17,.cls-9{stroke:#641b41;}.cls-9{stroke-width:9px;}.cls-10{fill:#641b41;}.cls-11{fill:#212121;}.cls-12{fill:#161616;}.cls-13{fill:#fff;}.cls-14{fill:#eea792;}.cls-15{stroke-width:10px;}.cls-16{fill:#e99e8b;}.cls-17{stroke-width:8px;}</style></defs><title>Asset 20</title><g id="Layer_2" data-name="Layer 2"><g id="Layer_1-2" data-name="Layer 1"><g id="Layer_3" data-name="Layer 3"><path class="cls-1" d="M122.9,398.23l-12.19,222s165,25,280-8-48-214-48-214H122.9"/><path class="cls-2" d="M338.74,407s3.47,6.3-15,41c0,0-90.5,18.73-136.5,5.73l2,26.16,49,10.84,70-4.71-8.41,21.42s-28.59,10.29-35.59.29c0,0-31,16-41-3,0,0-7,7-12,7,0,0,19,13,15,117l-42-131L176.88,486l-31.67-67.29s109,38.51,193.53-11.75"/><path d="M239.42,609.45a12.24,12.24,0,0,0-10.8-10.34,11.48,11.48,0,0,0-5.31.63,9.84,9.84,0,0,0-6.17,8.18,8.54,8.54,0,0,0,1,5.22,8,8,0,0,0,4,3.44,7.7,7.7,0,0,0,5.33.09,6.37,6.37,0,0,0,3.7-3.75,5.92,5.92,0,0,0-.49-5.25,5.13,5.13,0,0,0-4.75-2.23,4.09,4.09,0,0,0-2.47,1.08,4.16,4.16,0,0,0-1.28,2.4,3.66,3.66,0,0,0,.56,2.66,3.29,3.29,0,0,0,2.32,1.41,2.88,2.88,0,0,0,2.56-.88,2.73,2.73,0,0,0,.53-2.67,2.22,2.22,0,0,0-2.29-1.41,1.82,1.82,0,0,0-1.62,2.07,1.85,1.85,0,0,1,1.61-2.16,2.35,2.35,0,0,1,2.47,1.43,2.93,2.93,0,0,1-.49,2.92,3.21,3.21,0,0,1-2.81,1.08,3.79,3.79,0,0,1-2.67-1.52,4.23,4.23,0,0,1-.73-3,4.94,4.94,0,0,1,1.38-2.8,4.82,4.82,0,0,1,2.85-1.35,6,6,0,0,1,6.72,5.43,7.75,7.75,0,0,1-.33,3.17,7.66,7.66,0,0,1-4.28,4.6,9.13,9.13,0,0,1-6.33.1,9.52,9.52,0,0,1-5-4,9.12,9.12,0,0,1-1.21-3,11.24,11.24,0,0,1-.22-3.22,11.9,11.9,0,0,1,7.19-10.1,14.59,14.59,0,0,1,12.56.9,15.16,15.16,0,0,1,7.36,10.4Z"/><path d="M235.84,590.39a15.11,15.11,0,0,1,.64-12.71,14.54,14.54,0,0,1,10.13-7.5,11.88,11.88,0,0,1,11.48,4.68,11.59,11.59,0,0,1,1.54,2.83,9,9,0,0,1,.59,3.2,9.5,9.5,0,0,1-2.06,6,9.11,9.11,0,0,1-5.4,3.31,7.64,7.64,0,0,1-6.08-1.59,7.49,7.49,0,0,1-2-2.5,6,6,0,0,1,2.76-8.18,4.75,4.75,0,0,1,5.79,1.24,4.17,4.17,0,0,1,1,2.93,3.78,3.78,0,0,1-1.44,2.71,3.15,3.15,0,0,1-2.95.59,2.91,2.91,0,0,1-2-2.2,2.35,2.35,0,0,1,1.32-2.53,1.85,1.85,0,0,1,2.51,1,1.8,1.8,0,0,0-2.47-.87,2.2,2.2,0,0,0-1.18,2.41,2.7,2.7,0,0,0,1.88,2,2.83,2.83,0,0,0,2.63-.61,3.36,3.36,0,0,0,1.21-2.44,3.67,3.67,0,0,0-1-2.55,4.26,4.26,0,0,0-2.37-1.34,4.09,4.09,0,0,0-2.66.41,5.14,5.14,0,0,0-2.81,4.43,5.9,5.9,0,0,0,2.39,4.7,6.42,6.42,0,0,0,5.14,1.18A7.73,7.73,0,0,0,257,586a8,8,0,0,0,1.57-5.08,8.58,8.58,0,0,0-2-4.94,9.8,9.8,0,0,0-9.59-3.6,11.37,11.37,0,0,0-4.82,2.32,12.15,12.15,0,0,0-3.36,4.17,12.3,12.3,0,0,0-.22,10.34Z"/><path d="M255,599.39A15.15,15.15,0,0,1,267.46,602a14.55,14.55,0,0,1,5.88,11.14A11.91,11.91,0,0,1,267,623.74a11.55,11.55,0,0,1-3,1.09,8.94,8.94,0,0,1-3.26.1A9.53,9.53,0,0,1,255,622a9.17,9.17,0,0,1-2.45-5.84,7.59,7.59,0,0,1,2.5-5.76,7.43,7.43,0,0,1,2.77-1.58,6,6,0,0,1,7.67,4,4.79,4.79,0,0,1-2.11,5.54,4.18,4.18,0,0,1-3.05.54A3.79,3.79,0,0,1,257.9,617a3.21,3.21,0,0,1-.14-3,3,3,0,0,1,2.48-1.63,2.37,2.37,0,0,1,2.3,1.69,1.85,1.85,0,0,1-1.33,2.34,1.8,1.8,0,0,0,1.24-2.31,2.21,2.21,0,0,0-2.2-1.53,2.7,2.7,0,0,0-2.23,1.56,2.85,2.85,0,0,0,.21,2.7,3.35,3.35,0,0,0,2.23,1.56,3.7,3.7,0,0,0,2.66-.56,4.3,4.3,0,0,0,1.69-2.14,4.1,4.1,0,0,0,0-2.7,5.13,5.13,0,0,0-3.95-3.44,5.91,5.91,0,0,0-5,1.65,6.44,6.44,0,0,0-2,4.9,7.76,7.76,0,0,0,2.23,4.85,8,8,0,0,0,4.77,2.31,8.58,8.58,0,0,0,5.19-1.17,9.82,9.82,0,0,0,5-8.94,11.32,11.32,0,0,0-1.56-5.11,12.21,12.21,0,0,0-13.8-5.74Z"/><path class="cls-3" d="M187,491.88c2.14-9.8,31.38-3.44,29.24,6.36C214.34,506.89,185.1,500.53,187,491.88Z"/><path class="cls-3" d="M187,491.88c2.14-9.8,31.38-3.44,29.24,6.36C214.34,506.89,185.1,500.53,187,491.88Z"/><path class="cls-3" d="M189.23,479.89c2.13-9.8,31.37-3.43,29.24,6.36C216.58,494.91,187.34,488.55,189.23,479.89Z"/><path class="cls-4" d="M191.31,479.52S207.47,477,217,485.4l.07-2.41s-12-10.84-24.67-6Z"/><path class="cls-4" d="M189.31,492.52S205.47,490,215,498.4l.07-2.41s-12-10.84-24.67-6Z"/><path class="cls-5" d="M189.23,479.89c2.13-9.8,31.37-3.43,29.24,6.36C216.58,494.91,187.34,488.55,189.23,479.89Z"/><path class="cls-3" d="M171.73,479.91c3.08-9.54,31.56-.36,28.48,9.19C197.49,497.53,169,488.35,171.73,479.91Z"/><path class="cls-3" d="M158.84,463.34c5.57-8.34,30.45,8.28,24.88,16.62C178.8,487.33,153.92,470.71,158.84,463.34Z"/><path class="cls-4" d="M165.21,464.73s13.14,3.43,16.07,11.21h3.25s-6.32-13.6-19.32-13.91Z"/><path class="cls-5" d="M158.84,463.34c5.57-8.34,30.45,8.28,24.88,16.62C178.8,487.33,153.92,470.71,158.84,463.34Z"/><path class="cls-3" d="M171.73,479.91c3.08-9.54,31.56-.36,28.48,9.19C197.49,497.53,169,488.35,171.73,479.91Z"/><path class="cls-4" d="M174.43,479.68s16.28-1.45,25.28,7.55l.23-2.4s-11.23-11.6-24.23-7.6Z"/><path class="cls-5" d="M171.73,479.91c3.08-9.54,31.56-.36,28.48,9.19C197.49,497.53,169,488.35,171.73,479.91Z"/><path class="cls-6" d="M85.93,625.57,221.3,630,105.94,447.64c-20.46-3.54-39.63-3.79-52.11,13-24.67,22.86-38.15,50.3-41.49,81.9L4.59,608.73Z"/><path class="cls-7" d="M80.6,453.87s-33.8,23-42.26,39.84c0,0,15.95,17.34,11.79,28.53,0,0-15.84-12.91-20.19-9.48,0,0-10.69,61.24-9.36,70.08L84.2,600.12l-2.08,5.59S23,591.65,17.53,594s-1.89,13.35-1.89,13.35l-11,1.38-.66-26.59,15.29-71.95,25.17-39.43L66,447.57Z"/><path class="cls-8" d="M95.55,453.5s-11.19,18-9.7,33.5c0,0,42.08-2,45.54,3.39L124,459.45Z"/><path class="cls-8" d="M139.48,413.89l-8.84,46.21c-.47,10.28,1.77,20.61,10.74,31.07l76.91,120.75c-8.58-40.1-17.41-79.85-34.91-107.92Z"/><polygon class="cls-6" points="112.17 385.46 81.38 440.54 123.81 452.8 129.36 408.32 120.04 389.7 112.17 385.46"/><path class="cls-8" d="M114.52,391s12.27,3,9,51.88l15.64-40.3-24.87-19.34Z"/><path class="cls-7" d="M99.58,410.09,84.11,438.81s40.1,7.88,40.27,14.53L120.16,459,74.27,445.23l16-38.72L102,399.57Z"/><path class="cls-9" d="M123.49,462.23l-3,12.27L221.65,621.68c-7.54-80.75-83.91-210.8-83.91-210.8L124.54,460,71,448c11-50.16,45.06-61,45.06-61"/><polygon class="cls-6" points="138.69 423.48 133.19 470.18 208.34 595.82 124.41 473.72 138.69 423.48"/><path class="cls-9" d="M71,448S5.4,484,4.5,582.68l.66,26.59L85.37,625l-.6-24.37-77-19.17"/><path class="cls-10" d="M114.92,388.81a40,40,0,0,1-3.28,8.09,72.86,72.86,0,0,1-4.31,7.15c-1.56,2.29-3.2,4.48-5,6.62s-3.57,4.16-5.52,6.5a12.62,12.62,0,0,1-.11-2.3A19.28,19.28,0,0,1,97,412.6c.16-.73.33-1.46.54-2.18s.46-1.4.72-2.09a38.12,38.12,0,0,1,4.08-7.65,44.4,44.4,0,0,1,5.5-6.59A30,30,0,0,1,114.92,388.81Z"/><path class="cls-3" d="M226.87,497.47c0-10,30-9.89,29.92.13C256.75,506.46,226.83,506.33,226.87,497.47Z"/><path class="cls-5" d="M226.87,497.47c0-10,30-9.89,29.92.13C256.75,506.46,226.83,506.33,226.87,497.47Z"/><path class="cls-3" d="M226.59,486.39c0-10,30-9.89,29.93.13C256.48,495.38,226.55,495.25,226.59,486.39Z"/><path class="cls-4" d="M227.78,485.81s15-6.56,26.37-.89l-.54-2.35s-14.34-7.42-25.4.51Z"/><path class="cls-4" d="M229.17,498.89s15-6.56,26.37-.89l-.54-2.35s-14.34-7.42-25.39.51Z"/><path class="cls-5" d="M226.59,486.39c0-10,30-9.89,29.93.13C256.48,495.38,226.55,495.25,226.59,486.39Z"/><path class="cls-3" d="M268.4,496.4c-2-9.82,27.29-15.86,29.31-6C299.5,499,270.19,505.07,268.4,496.4Z"/><path class="cls-5" d="M268.4,496.4c-2-9.82,27.29-15.86,29.31-6C299.5,499,270.19,505.07,268.4,496.4Z"/><path class="cls-3" d="M265.85,485.61c-2-9.82,27.29-15.86,29.31-6C297,488.25,267.64,494.29,265.85,485.61Z"/><path class="cls-4" d="M266.89,484.81s13.3-9.51,25.62-6.32l-1-2.18S275.93,472,266.76,482Z"/><path class="cls-4" d="M271,497.32s13.3-9.51,25.62-6.32l-1-2.18s-15.57-4.31-24.74,5.73Z"/><path class="cls-5" d="M265.85,485.61c-2-9.82,27.29-15.86,29.31-6C297,488.25,267.64,494.29,265.85,485.61Z"/><path class="cls-3" d="M207.87,491.28c0-10,30-9.89,29.92.14C237.75,500.28,207.83,500.14,207.87,491.28Z"/><path class="cls-4" d="M208.88,490.22s15.89-5.93,27.39.52l-.43-2.44s-14.46-8.41-26.36-.87Z"/><path class="cls-5" d="M207.87,491.28c0-10,30-9.89,29.92.14C237.75,500.28,207.83,500.14,207.87,491.28Z"/><path class="cls-3" d="M314.38,476.4c-3.54-9.38-31.54,1.19-28,10.58C289.52,495.26,317.51,484.69,314.38,476.4Z"/><path class="cls-3" d="M326.45,459.21c-6-8-30,9.77-24,17.83C307.69,484.15,331.72,466.33,326.45,459.21Z"/><path class="cls-4" d="M304.13,473.28s11.71-13.37,25.48-14.06l-1.6-1.81s-17.46.6-24.7,13.21Z"/><path class="cls-5" d="M326.45,459.21c-6-8-30,9.77-24,17.83C307.69,484.15,331.72,466.33,326.45,459.21Z"/><path class="cls-3" d="M314.38,476.4c-3.54-9.38-31.54,1.19-28,10.58C289.52,495.26,317.51,484.69,314.38,476.4Z"/><path class="cls-4" d="M286.87,484.91s13.92-11,27.59-9.22l-1.25-2.08s-17.28-2.56-26.67,8.54Z"/><path class="cls-5" d="M314.38,476.4c-3.54-9.38-31.54,1.19-28,10.58C289.52,495.26,317.51,484.69,314.38,476.4Z"/><path class="cls-6" d="M407.24,617.66l-135,11.09L378.5,440.93c20.26-4.54,39.4-5.73,52.69,10.42C457,473,471.77,499.71,476.66,531.11l11,65.73Z"/><path class="cls-7" d="M404.12,445.9s34.9,21.31,44.17,37.71c0,0-15.08,18.11-10.37,29.08,0,0,15.18-13.67,19.7-10.46,0,0,13.69,60.64,12.8,69.53l-62.69,20.39,2.35,5.49s58.34-17,63.93-14.88S476.56,596,476.56,596l11.1.84-.65-26.6L468.2,499.13,441.12,461,418.36,438.9Z"/><path class="cls-8" d="M389.17,446.27s12.07,17.44,11.34,33c0,0-42.13.09-45.31,5.63l5.88-31.27Z"/><polygon class="cls-8" points="343.35 408.87 354.45 454.59 345.25 486.15 272.33 609.64 303.93 501.03 343.35 408.87"/><polygon class="cls-6" points="369.22 379.13 402.69 432.63 360.91 446.96 353.17 402.81 361.57 383.75 369.22 379.13"/><path class="cls-8" d="M367.14,384.73S355,388.35,360.67,437l-17.6-39.48L367,377Z"/><path class="cls-7" d="M383,403.11,399.88,431s-39.67,9.84-39.51,16.49l4.49,5.46L410,437l-17.85-37.89-16.08-9.36Z"/><path class="cls-9" d="M361.7,456.37l3.62,12.1-93.82,152c3.55-81,73.43-214.67,73.43-214.67l15.61,48.4,52.85-14.61c-13.41-49.55-48-58.68-48-58.68"/><polygon class="cls-6" points="343.56 417.46 351.35 463.83 277.47 602.02 361.3 467.93 343.56 417.46"/><path class="cls-9" d="M413.39,439.57s67.33,32.71,73.08,131.24l.65,26.59-79.34,19.69-.6-24.37,75.94-22.93"/><path class="cls-10" d="M364.5,382.81a42.43,42.43,0,0,1,7.8,6.89,66.69,66.69,0,0,1,6.23,8.09,57,57,0,0,1,4.83,9.07,36.32,36.32,0,0,1,1.65,5,16.75,16.75,0,0,1,.55,5.33c-.3-.36-.55-.71-.82-1.06a11.89,11.89,0,0,0-.78-1c-.57-.66-1-1.32-1.6-2-1.05-1.31-2.1-2.61-3.09-3.93-2-2.64-4-5.34-5.77-8.14a95.47,95.47,0,0,1-5.06-8.68A53.65,53.65,0,0,1,364.5,382.81Z"/><path class="cls-3" d="M278.85,489.54c-.54-10-30.42-8.41-29.88,1.6C249.45,500,279.33,498.38,278.85,489.54Z"/><path class="cls-4" d="M249.63,490.65s16.11-7.51,29-2.58l-.73-2.31s-16.22-6.49-27.93,2.13Z"/><path class="cls-5" d="M278.85,489.54c-.54-10-30.42-8.41-29.88,1.6C249.45,500,279.33,498.38,278.85,489.54Z"/></g><path class="cls-1" d="M78.71,133.23c-1.45-5.14-58,292.6,131,300,154.14,6,202.82-81,178.8-191.5,0,0-5.8-55.5-19.8-113.5C368.71,128.23,229.71,26.23,78.71,133.23Z"/><path class="cls-11" d="M180.48,305.06s-40.77,3.17-47.77,59.17c0,0,49,16,89-16,0,0,46,31,105-1,0,0-27.48-66.74-87.74-44.37"/><path class="cls-10" d="M180.48,305.06a49.12,49.12,0,0,0-18.49,8,55.22,55.22,0,0,0-13.89,14.18,69.19,69.19,0,0,0-8.43,17.88,96.73,96.73,0,0,0-3.84,19.5l-2.14-3.38c1.65.47,3.57.9,5.4,1.26s3.72.68,5.6.93a111.65,111.65,0,0,0,33.87-.51,98.7,98.7,0,0,0,10.93-2.6A91.37,91.37,0,0,0,200,356.37a86.45,86.45,0,0,0,19-11.62l2.5-2,2.77,1.78c.31.19.8.5,1.24.75s.91.53,1.38.78c.93.52,1.9,1,2.87,1.49,1.94.95,3.94,1.82,6,2.64a102.49,102.49,0,0,0,12.48,4,100.24,100.24,0,0,0,26,3.06c2.19,0,4.38-.16,6.57-.28s4.37-.4,6.55-.74,4.34-.7,6.5-1.08c1.08-.21,2.15-.49,3.23-.73s2.15-.48,3.2-.8a124.12,124.12,0,0,0,24.71-9.71l-1.68,4.71c-.34-.88-.82-1.94-1.27-2.91s-.94-2-1.44-2.95c-1-2-2.08-3.89-3.2-5.79a99.14,99.14,0,0,0-7.5-10.92,89.44,89.44,0,0,0-8.89-9.77,68.3,68.3,0,0,0-10.42-8.05,55.58,55.58,0,0,0-24.82-8.51,58,58,0,0,0-13.42.27c-2.26.2-4.46.71-6.7,1.13-1.13.18-2.2.55-3.31.83l-3.31.88A66.78,66.78,0,0,1,265.85,297a57.64,57.64,0,0,1,27.07,7.15,78.91,78.91,0,0,1,21.79,17.9,108.23,108.23,0,0,1,8.48,11.28c1.28,2,2.51,4,3.68,6,.57,1,1.15,2.07,1.69,3.12s1.07,2.08,1.61,3.3l1.34,3-3,1.69a127.35,127.35,0,0,1-26,11.07c-1.13.37-2.28.65-3.43.95s-2.3.61-3.46.87c-2.33.47-4.65,1-7,1.35a101,101,0,0,1-14.23,1.31A104.84,104.84,0,0,1,246,362.93a100.86,100.86,0,0,1-13.64-4.41c-2.22-.91-4.41-1.88-6.58-2.95-1.08-.54-2.15-1.1-3.22-1.69l-1.6-.91c-.55-.33-1-.62-1.69-1.05l5.27-.22a94.76,94.76,0,0,1-21.1,12.56,99.79,99.79,0,0,1-11.58,4,106.85,106.85,0,0,1-12,2.53,108.16,108.16,0,0,1-24.24.86,117.31,117.31,0,0,1-12-1.55c-2-.36-4-.78-5.93-1.25s-3.87-1-5.95-1.67l-2.52-.83.37-2.54a97.51,97.51,0,0,1,5.23-20.4l1-2.46c.34-.82.72-1.62,1.08-2.42.69-1.63,1.55-3.17,2.35-4.74a66.72,66.72,0,0,1,5.86-8.81,54.43,54.43,0,0,1,15.8-13.72,51.34,51.34,0,0,1,9.51-4.22A40.31,40.31,0,0,1,180.48,305.06Z"/><path class="cls-12" d="M177.65,311.19s-33.94,19-34.94,48c0,0,15,5,28,0l28-24s-4,14-10,20c0,0,24-8,29-19,0,0,19,17,50,13l-18-16s45,31,74,12c0,0-26-55-69-46l-22,11-26,6-20-3Z"/><path class="cls-4" d="M133.37,359.7c-2.87-2.22,38.84-53,38.84-53S142.53,312.67,133.37,359.7Z"/><path class="cls-10" d="M180.48,305.06a49.12,49.12,0,0,0-18.49,8,55.22,55.22,0,0,0-13.89,14.18,69.19,69.19,0,0,0-8.43,17.88,96.73,96.73,0,0,0-3.84,19.5l-2.14-3.38c1.65.47,3.57.9,5.4,1.26s3.72.68,5.6.93a111.65,111.65,0,0,0,33.87-.51,98.7,98.7,0,0,0,10.93-2.6A91.37,91.37,0,0,0,200,356.37a86.45,86.45,0,0,0,19-11.62l2.5-2,2.77,1.78c.31.19.8.5,1.24.75s.91.53,1.38.78c.93.52,1.9,1,2.87,1.49,1.94.95,3.94,1.82,6,2.64a102.49,102.49,0,0,0,12.48,4,100.24,100.24,0,0,0,26,3.06c2.19,0,4.38-.16,6.57-.28s4.37-.4,6.55-.74,4.34-.7,6.5-1.08c1.08-.21,2.15-.49,3.23-.73s2.15-.48,3.2-.8a124.12,124.12,0,0,0,24.71-9.71l-1.68,4.71c-.34-.88-.82-1.94-1.27-2.91s-.94-2-1.44-2.95c-1-2-2.08-3.89-3.2-5.79a99.14,99.14,0,0,0-7.5-10.92,89.44,89.44,0,0,0-8.89-9.77,68.3,68.3,0,0,0-10.42-8.05,55.58,55.58,0,0,0-24.82-8.51,58,58,0,0,0-13.42.27c-2.26.2-4.46.71-6.7,1.13-1.13.18-2.2.55-3.31.83l-3.31.88A66.78,66.78,0,0,1,265.85,297a57.64,57.64,0,0,1,27.07,7.15,78.91,78.91,0,0,1,21.79,17.9,108.23,108.23,0,0,1,8.48,11.28c1.28,2,2.51,4,3.68,6,.57,1,1.15,2.07,1.69,3.12s1.07,2.08,1.61,3.3l1.34,3-3,1.69a127.35,127.35,0,0,1-26,11.07c-1.13.37-2.28.65-3.43.95s-2.3.61-3.46.87c-2.33.47-4.65,1-7,1.35a101,101,0,0,1-14.23,1.31A104.84,104.84,0,0,1,246,362.93a100.86,100.86,0,0,1-13.64-4.41c-2.22-.91-4.41-1.88-6.58-2.95-1.08-.54-2.15-1.1-3.22-1.69l-1.6-.91c-.55-.33-1-.62-1.69-1.05l5.27-.22a94.76,94.76,0,0,1-21.1,12.56,99.79,99.79,0,0,1-11.58,4,106.85,106.85,0,0,1-12,2.53,108.16,108.16,0,0,1-24.24.86,117.31,117.31,0,0,1-12-1.55c-2-.36-4-.78-5.93-1.25s-3.87-1-5.95-1.67l-2.52-.83.37-2.54a97.51,97.51,0,0,1,5.23-20.4l1-2.46c.34-.82.72-1.62,1.08-2.42.69-1.63,1.55-3.17,2.35-4.74a66.72,66.72,0,0,1,5.86-8.81,54.43,54.43,0,0,1,15.8-13.72,51.34,51.34,0,0,1,9.51-4.22A40.31,40.31,0,0,1,180.48,305.06Z"/><path d="M172.29,307s41,39,82.47-8.15C245.71,301.23,187.71,306.23,172.29,307Z"/><path class="cls-2" d="M113.82,241.73s1.39,20,6.39,21,51-10,51-10l-4,21-22,25s14,10,27,8,16.5-90.34,16.5-90.34-10,19.84-13.5,23.34-9.5,4.84-9.5,4.84S136.42,236.73,113.82,241.73Z"/><path class="cls-2" d="M320,231.44l-3.75,23.29s-49.88,1.64-57.69-14.43C299.71,224.23,320,231.44,320,231.44Z"/><g id="Layer_2-2" data-name="Layer 2"><path class="cls-10" d="M254.21,241.73a3.06,3.06,0,0,1,.89-.83c.34-.25.68-.44,1-.67.69-.41,1.39-.79,2.11-1.14,1.42-.71,2.87-1.32,4.32-1.9,2.92-1.14,5.87-2.07,8.84-2.9a138.3,138.3,0,0,1,18-3.6,148.55,148.55,0,0,1,18.27-1.36,94.87,94.87,0,0,1,18.54,1.4,102.8,102.8,0,0,1-17.69,5.63q-8.91,2.07-17.92,3.24c-6,.79-12,1.36-18.08,1.65-3,.15-6.07.23-9.12.26h-4.59l-2.31,0A8.76,8.76,0,0,0,254.21,241.73Z"/><path class="cls-10" d="M111.21,241.73a54.73,54.73,0,0,1,14.31-4.1,81.11,81.11,0,0,1,14.6-.93,66.14,66.14,0,0,1,14.65,2,41.29,41.29,0,0,1,7.16,2.54,17.89,17.89,0,0,1,6.28,4.54,52.72,52.72,0,0,0-7.26-.22l-7,.17c-4.68.11-9.36.15-14.07,0s-9.43-.44-14.2-1A78.75,78.75,0,0,1,111.21,241.73Z"/><circle class="cls-10" cx="139.21" cy="250.73" r="9"/><circle class="cls-13" cx="135.21" cy="250.73" r="4.46"/><circle class="cls-10" cx="286.21" cy="243.73" r="9"/><circle class="cls-13" cx="282.21" cy="243.73" r="4.46"/><polygon class="cls-13" points="188.71 216.39 200.21 264.73 227.21 274.73 200.21 274.73 171.21 293.73 189.21 269.73 188.71 216.39"/></g><path class="cls-1" d="M188.71,213.23v56l-23,24s32,30,78,8"/><path class="cls-10" d="M188.71,213.23c.63,4.66,1.11,9.33,1.55,14s.81,9.33,1.12,14,.58,9.33.81,14l.31,7,.24,7,0,1.5L191.62,272,186,278.17c-1.86,2.05-3.76,4.07-5.64,6.1s-3.79,4.05-5.7,6.05-3.8,4-5.74,6l-.17-6.38c.17.16.5.45.78.68s.59.49.9.74c.62.49,1.26,1,1.91,1.43,1.31.93,2.64,1.84,4,2.69A73,73,0,0,0,185,300a71.29,71.29,0,0,0,18.77,5.47c1.63.28,3.27.41,4.91.58s3.31.22,5,.2,3.33,0,5-.09,3.34-.24,5-.43a105.94,105.94,0,0,0,20-4.53A71,71,0,0,1,224.52,310,63.32,63.32,0,0,1,214,312c-1.79.25-3.6.32-5.41.43s-3.63.06-5.44-.06a68,68,0,0,1-21.34-4.6,69.37,69.37,0,0,1-9.91-4.76c-1.6-.92-3.15-1.91-4.67-3-.76-.53-1.51-1.08-2.26-1.66-.37-.29-.74-.58-1.11-.89s-.71-.59-1.19-1l-3.33-3,3.16-3.36c1.9-2,3.84-4,5.76-6s3.85-4,5.81-5.94,3.88-4,5.85-5.9l5.91-5.85-1.12,2.79.24-7,.31-7q.35-7,.81-14c.31-4.67.71-9.34,1.12-14S188.08,217.89,188.71,213.23Z"/><path class="cls-14" d="M181.71,295.23s35,17,67-4Z"/><path class="cls-2" d="M263.71,422.23c-26,4.91,121.37-27.91,109-124-13-101-30.44-179.8-30.44-179.8l26.44,9.8,29.3,170s-14.18,59.2-28.24,77.08S330.71,425.7,272.21,430,263.71,422.23,263.71,422.23Z"/><path class="cls-15" d="M78.71,133.23c-1.45-5.14-58,292.6,131,300,154.14,6,202.82-81,178.8-191.5,0,0-5.8-55.5-19.8-113.5C368.71,128.23,229.71,26.23,78.71,133.23Z"/><path class="cls-1" d="M385.42,224.59c67.82-58.07,67.94,114.16-7.87,40.47"/><path class="cls-10" d="M385.42,224.59a50.21,50.21,0,0,1,16.68-12.77,25.88,25.88,0,0,1,11-2.27,21.36,21.36,0,0,1,11.31,3.58,27.82,27.82,0,0,1,8.13,8.41,41.94,41.94,0,0,1,4.73,10.26,58,58,0,0,1,2.35,21.88A47.76,47.76,0,0,1,433,275a27.81,27.81,0,0,1-8.29,8.56,22.09,22.09,0,0,1-11.57,3.58A27.72,27.72,0,0,1,401.9,285a46.43,46.43,0,0,1-9.47-5.3,76,76,0,0,1-14.88-14.66,123.55,123.55,0,0,0,17.17,10.88,49.57,49.57,0,0,0,9,3.47,23.38,23.38,0,0,0,8.91.71l1.05-.15c.35-.05.68-.17,1-.25s.68-.15,1-.28l1-.37c.65-.22,1.23-.59,1.85-.87s1.17-.69,1.7-1.14a21,21,0,0,0,5.48-6.46,35.75,35.75,0,0,0,3.38-8.41A48.26,48.26,0,0,0,430.7,253a54.57,54.57,0,0,0,0-9.48,51.4,51.4,0,0,0-1.56-9.28c-1.6-6-4.36-11.74-8.8-15.33a16,16,0,0,0-7.69-3.44,22.87,22.87,0,0,0-9.14.56C397.25,217.54,391.27,221,385.42,224.59Z"/><path class="cls-10" d="M390.94,234.31a15.52,15.52,0,0,1,7.15-4.53,13.26,13.26,0,0,1,9,.68,17.28,17.28,0,0,1,7,5.86,19.87,19.87,0,0,1,1.21,2c.36.68.67,1.39,1,2.1a19.24,19.24,0,0,1,1.13,4.51,15.33,15.33,0,0,1-1.73,9.32,14.33,14.33,0,0,1-7.15,6,20.36,20.36,0,0,1-8.63,1.34,30.37,30.37,0,0,1-4.18-.47c-1.37-.25-2.71-.64-4-1,.69-.09,1.38-.13,2.06-.2s1.35,0,2-.16c1.34-.21,2.67-.27,3.95-.6a22,22,0,0,0,7.12-2.44,11.42,11.42,0,0,0,4.66-4.74,11.74,11.74,0,0,0,1-6.48,15.71,15.71,0,0,0-2.31-6.55,15.35,15.35,0,0,0-4.86-5,11.69,11.69,0,0,0-6.81-1.76A19.76,19.76,0,0,0,390.94,234.31Z"/><path class="cls-16" d="M388.7,244.84c1.45,1.59,2.59,2.89,3.67,4a14.58,14.58,0,0,0,3,2.42,2.93,2.93,0,0,0,.76.41,3.62,3.62,0,0,0,.82.38l.9.38a7.5,7.5,0,0,1,1,.3,6.44,6.44,0,0,0,1.15.29c.4.09.81.2,1.25.33a17.77,17.77,0,0,1,2.88.72,10.85,10.85,0,0,1-2.28,2.16,15,15,0,0,1-1.39.7,5.28,5.28,0,0,1-1.51.51,9,9,0,0,1-6.71-1,9.19,9.19,0,0,1-4.1-5.35A8.48,8.48,0,0,1,388.7,244.84Z"/><path class="cls-16" d="M384.77,261.48c2.51,1.24,4.65,2.53,6.74,3.77s4.06,2.42,6.05,3.46a38.82,38.82,0,0,0,6.06,2.66,37.14,37.14,0,0,0,7.19,1.54,11.36,11.36,0,0,1-7.77,3.15,16.44,16.44,0,0,1-4.31-.49,19.83,19.83,0,0,1-4-1.56,20.9,20.9,0,0,1-6.35-5.24A17.17,17.17,0,0,1,384.77,261.48Z"/><circle class="cls-13" cx="400.08" cy="240.43" r="5"/><path class="cls-13" d="M408.05,215.08c21.9,5,34,55.28-1.55,65.17l14,1.28,10.23-11.22,4.6-20.78-2.92-19L426.68,220l-12-7.66Z"/><path class="cls-10" d="M385.42,224.59A46.87,46.87,0,0,1,402.28,212a25,25,0,0,1,11.18-1.85,21.4,21.4,0,0,1,5.82,1.25,24.15,24.15,0,0,1,2.74,1.24l1.32.73,1.23.85a29.21,29.21,0,0,1,7.89,8.53A44.32,44.32,0,0,1,437.17,233a58.94,58.94,0,0,1,2.52,21.86c-.57,7.34-2.36,14.8-6.56,21.46a27.16,27.16,0,0,1-8.52,8.48,22.06,22.06,0,0,1-5.73,2.38,24.06,24.06,0,0,1-6.05.72,30.06,30.06,0,0,1-11.14-2.58,49.35,49.35,0,0,1-9.33-5.5,78.62,78.62,0,0,1-14.81-14.74,132,132,0,0,0,17.14,11,53,53,0,0,0,9,3.69,25.67,25.67,0,0,0,9,1.06,16,16,0,0,0,7.68-2.71,20.38,20.38,0,0,0,5.53-6.27,34.28,34.28,0,0,0,3.34-8.38,47.4,47.4,0,0,0,1.51-9.24,56.76,56.76,0,0,0-.08-9.49A53.84,53.84,0,0,0,429,235.4a40.59,40.59,0,0,0-3.35-8.62,24.1,24.1,0,0,0-5.39-7l-.82-.7-.88-.61a15.38,15.38,0,0,0-5.88-2.51,21.7,21.7,0,0,0-9.09.22,41.67,41.67,0,0,0-9.26,3.33l-2.27,1.13-2.22,1.27C388.32,222.73,386.93,223.73,385.42,224.59Z"/><path class="cls-16" d="M202.78,398.38a4.26,4.26,0,0,1-.33-1.65c0-.15,0-.3,0-.45l.09-.43a5.06,5.06,0,0,1,.23-.87,9.37,9.37,0,0,1,1.91-3,19.25,19.25,0,0,1,5.52-4A33.8,33.8,0,0,1,223,384.69a27.59,27.59,0,0,1,13.26,2.21,14.46,14.46,0,0,1,5.54,4.35,8.91,8.91,0,0,1,1.78,6.48c-.29-.48-.54-.94-.8-1.38s-.6-.82-.91-1.19-.67-.7-1-1-.71-.59-1.12-.82a15.68,15.68,0,0,0-5.06-2,42,42,0,0,0-11.31-.66,63.66,63.66,0,0,0-11.48,1.72,26.1,26.1,0,0,0-5.39,1.91,10.07,10.07,0,0,0-2.32,1.54A4.83,4.83,0,0,0,202.78,398.38Z"/><path class="cls-10" d="M202.71,398.23a9.58,9.58,0,0,1-.24-8,17.42,17.42,0,0,1,5-6.77,26.45,26.45,0,0,1,15.13-6.09c.7,0,1.4-.06,2.1-.06s1.4,0,2.11.09l2.11.3c.7.15,1.4.29,2.09.48a19.42,19.42,0,0,1,7.66,4.11,16.09,16.09,0,0,1,4.65,7.11,15.63,15.63,0,0,1,.41,7.86,34,34,0,0,0-4.25-5.68,16.55,16.55,0,0,0-4.88-3.5,22.84,22.84,0,0,0-11.35-1.73,35.43,35.43,0,0,0-11.85,3,20.17,20.17,0,0,0-5.19,3.26A11.51,11.51,0,0,0,202.71,398.23Z"/><path class="cls-2" d="M165.21,184.73c8.54,5.12,64,7.24,98-6"/><path class="cls-2" d="M104.81,154.17s56.9,5.06,67.9-12.94c0,0,33,12,39-11,0,0,30,8,37-5,0,0,18,11,34,0,0,0,10,44,56,30,0,0,17.23-3.78,16.11-11.89S230.71,62.23,230.71,62.23l-135,59.91Z"/><g id="HAIR"><path class="cls-12" d="M65.23,288.55s-23.06,4.72-20.7-30.69c0,0-9.45-11.81,0-26,0,0-21.25-28.33,9.44-44.86,0,0-40-37.78-8.48-59,0,0-13.43-37,23.22-49.22L77,71.32,96.44,36.45l11.29-10,7.08,11.8,24.67-16.33,27.28,9.25L190.37,7.57l35.42-4.72,33,16.52,16.53-4.72,21.25-7.08,18.89,21.25L325,47.71h28.33L369.82,69l2.36,9.44,21.25,2.37,8.29,19.92L404.45,116l15-4.55-4.73,23.61,11.81,4.73-2.36,23.61,6.53,18.33-13.53,23.45-20.64-.39-10.56,28.89-3.29,26.67,7.13,9.3-4.36,16.17-2.53,14.53h-4.73L363,316l-6.13-6.19,9.33-25L366,244.15l3.67-18.59-3.29-33.82v-11.8l-6-18.89-6.22-25.53-33.92,4.28-26.35-20.32-5.54-10.78-22.42,5.88-18.21-7.19L227.2,117.87,206,113.44l-8.5,12.91L180.36,129l-13.6-5.71c.68,6.72-4.39,9.87-12.61,11l-42.83,5c.08,9-6.93,16.94-15,27.51L78.5,182.18l5.61,19L77,217.72,81.75,239l-7,13.35,5.7,25.86S73.71,294.23,65.23,288.55Z"/><path d="M314.75,41S309.61,79.58,278.91,82c0,0,16.53,0,21.25-2.37,0,0-18.88,21.26-37.77,21.26,0,0,14.16,14.16,35.41,0l-9.23,11.79s30.41,52.43,84.75,12.05l-18.05,14.48s-5.56,33.07,17,46.68l9.45-4.72s-11.81,23.61,2.36,47.22c0,0-21.25,42.5-18.89,59,0,0-11.81,31.26-3.54,28.62S377,299.18,377,299.18c1.65.08,14.33-10.06,13.62-19.34-9.88-19.61-11.48-78.36,22.36-70.94,0,0,40.69-16,12.36-44.31,0,0,7.08-30.7-11.81-30.7,0,0,8.88-21.92,4.44-28.67,0,0-9.16,14.51-16.24,9.78,0,0,2.36-42.5-22.43-39l-13.58,1.67s4.94-24.66-12.58-29.1c0,0-12.8-4.44-18.71-.9Z"/><path d="M75.85,178.76s.56,35.41-13.61,35.41c0,0,35.42,9.45,2.36,37.78,0,0,8.89,2.36,4.17,33.06,0,0,23.61,26,9.44,2.36,0,0,7.09-23.61-4.72-37.78,0,0,14.17-11.8,2.36-35.42C75.85,214.17,90,192.92,75.85,178.76Z"/><path class="cls-11" d="M106.55,62.29l10.62-9.86c8.1,17.36,43.52.83,35.42-16.53,0,0,22.76,2.53,27.91,4.81C146.37,10.72,121,15.15,106.55,62.29Z"/><path class="cls-11" d="M170.77,34.33S205.23-8.61,258.6,26L260,20.55C236.9-.31,207.68-4.8,165.58,25.28Z"/><path class="cls-11" d="M62.24,285s-9.45-16.53-4.72-30.7c0,0-14.17-9.44-2.37-21.25,0,0-28.88-35.41,8.89-49.58,0,0-14.16,0-18.89-16.53,0,0,18.89-7.08,4.73-26l12.48,6.08s-5.4-17.89-3-25c6.88,15,33.06-21.25,14.17-30.7,0,0,13.28-11.18,22-8L85.3,77.22s23.61-35.41,18.88-44.86-3.89-2-3.89-2L75,70.26l-1.53,9.32q-22.39,1.19-30.7,30.7L45.49,128,31,150.42l5.36,19.25,18.8,13.81L42.3,196.86l-6,14.95,9.44,21.25-7.08,9.45,7.08,18.89v11.8C51.07,284.35,56.58,288.37,62.24,285Z"/><path class="cls-10" d="M65.23,149.24c-1.14-.59-2.24-1.24-3.37-1.88l-1.68-1-1.58-1.11c-1.07-.75-2.13-1.51-3.16-2.31l-2.95-2.6a45.53,45.53,0,0,1-9.55-12.86A36.06,36.06,0,0,1,40.22,103l.54-2c.19-.68.48-1.33.71-2l.76-2,.93-1.9A37.66,37.66,0,0,1,53.86,82.2a36,36,0,0,1,15.19-6.73,31.3,31.3,0,0,1,16.26,1.26,32.08,32.08,0,0,1,13,8.76c-1.17-.56-2.29-1.16-3.42-1.72s-2.32-1-3.46-1.43-2.36-.72-3.51-1.08-2.38-.48-3.55-.72a31,31,0,0,0-13.84,1,33.92,33.92,0,0,0-11.89,6.54c-.84.75-1.67,1.53-2.48,2.31S54.59,92.1,53.92,93l-1,1.35c-.17.23-.35.45-.51.68l-.44.72a24.21,24.21,0,0,0-1.66,2.93,32.58,32.58,0,0,0-3.52,12.89,34.58,34.58,0,0,0,2,13.51,52.11,52.11,0,0,0,6.7,12.69A102.24,102.24,0,0,0,65.23,149.24Z"/><path class="cls-17" d="M75.22,77.71c-5.19-18.09,25.42-30,25.42-51.25,0,0,14.17,4.72,16.53,11.8"/><path d="M110.63,135.89s47.24-13.8,47.55-20.89c0,0,34,4,37.25-12.14L206,113.44s-5.86,20.45-30.22,14.55c-.31-3.72-13.93.2-14.91,3.18C160.37,132.65,141.33,150.06,110.63,135.89Z"/><path class="cls-10" d="M105.37,66.6a73.46,73.46,0,0,1,6.92-26.75,44.59,44.59,0,0,1,8.3-11.9,30.67,30.67,0,0,1,13.09-7.82A31.91,31.91,0,0,1,141.33,19c1.28,0,2.55.09,3.81.18l1.86.26a14.2,14.2,0,0,1,1.84.34,48.07,48.07,0,0,1,13.44,5.26,73,73,0,0,1,11.39,8.06c1.72,1.55,3.44,3.07,5,4.74s3.14,3.35,4.61,5.11c-1-.54-2-1.12-3-1.67s-2-1.14-3-1.68c-2-1.12-3.94-2.18-5.89-3.26a124.73,124.73,0,0,0-11.9-5.64,55.15,55.15,0,0,0-12.06-3.46c-1-.18-2-.21-3-.33s-2-.08-2.95,0a22.84,22.84,0,0,0-2.88.28,18.87,18.87,0,0,0-2.8.61,9.33,9.33,0,0,0-1.36.43c-.44.17-.91.28-1.34.49a23.81,23.81,0,0,0-2.57,1.3,28.38,28.38,0,0,0-4.8,3.41,49.19,49.19,0,0,0-8,9.51,107,107,0,0,0-6.53,11.39c-1,2-2,4-2.93,6.06-.49,1-1,2-1.43,3.08S105.89,65.57,105.37,66.6Z"/><path class="cls-17" d="M165,30.38s37.14-51.15,98.54-11"/><path class="cls-10" d="M249.4,35.9a51.28,51.28,0,0,1,3.4-5.58c1.23-1.81,2.56-3.54,4-5.23a72.43,72.43,0,0,1,9.33-9.37,52.32,52.32,0,0,1,11.44-7.33,33,33,0,0,1,14-3.25,25.84,25.84,0,0,1,7.43,1.17,25.58,25.58,0,0,1,6.7,3.33A30.31,30.31,0,0,1,311,14.48a36.57,36.57,0,0,1,4.08,5.65,52.64,52.64,0,0,1,5.21,12.34,65.15,65.15,0,0,1,1.49,6.4c.17,1.08.37,2.15.51,3.23s.26,2.16.34,3.25c-1-1.93-2-3.87-3-5.77s-2-3.77-3-5.6a74.68,74.68,0,0,0-6.77-10.29,32.7,32.7,0,0,0-8.4-7.7,19.34,19.34,0,0,0-4.86-2.12,18.46,18.46,0,0,0-5.2-.74,30.12,30.12,0,0,0-10.92,2.22,65.73,65.73,0,0,0-10.73,5.46c-3.5,2.15-6.91,4.57-10.29,7.11S252.76,33.13,249.4,35.9Z"/><path class="cls-10" d="M296.62,40.63a27.73,27.73,0,0,1,13.71-3.53,30.93,30.93,0,0,1,14.28,3.23c.57.27,1.1.61,1.65.92a18.77,18.77,0,0,1,1.6,1,30.33,30.33,0,0,1,3,2.35,27.56,27.56,0,0,1,4.74,5.79,24.54,24.54,0,0,1,3.55,13.84,90.6,90.6,0,0,0-8.51-10,47.65,47.65,0,0,0-4.59-3.8c-.82-.53-1.6-1.11-2.46-1.58-.41-.27-.83-.51-1.26-.74s-.85-.48-1.3-.68a55.12,55.12,0,0,0-11.37-4.14C305.55,42.26,301.29,41.48,296.62,40.63Z"/><path class="cls-17" d="M328.19,47.35S365.1,35.9,369.82,76"/><path class="cls-17" d="M293.56,9.25s21.95,5.4,29,36.1"/><path class="cls-17" d="M355.65,135.07a58.76,58.76,0,0,0,15.42,49.59c-14.17,9.44,0,44.86,0,44.86-9.44,7.08-4.72,56.67-4.72,56.67C343.08,337,378.65,310,378.15,298c28.34-2.36-22.44-94.77,36-90.28,33.05-26,10-44.31,10-44.31,9.44-30.7-11.81-30.7-11.81-30.7,9.45-7.08,4.72-35.42,4.72-35.42,0,18.89-14.16,18.89-14.16,18.89,0-44.86-23.61-40.14-23.61-40.14"/><path class="cls-10" d="M355.65,80.77a25.89,25.89,0,0,1,5.66-4.37,35.24,35.24,0,0,1,6.51-3A30.29,30.29,0,0,1,382.58,72a25.89,25.89,0,0,1,3.82,1l.94.34.91.42a13.75,13.75,0,0,1,1.79.92A18.73,18.73,0,0,1,396,80a19.43,19.43,0,0,1,3.22,6.87,20.26,20.26,0,0,1,.53,7.21c-2.76-3.93-5.29-7.44-8.36-9.8A26.15,26.15,0,0,0,389,82.69c-.42-.22-.83-.42-1.23-.66s-.84-.37-1.24-.57a13.22,13.22,0,0,0-1.29-.49l-.64-.24-.68-.18a21.46,21.46,0,0,0-2.74-.63,52,52,0,0,0-12.12-.37C364.81,79.81,360.42,80.36,355.65,80.77Z"/><path class="cls-10" d="M282.46,94.93c.56,1.23,1.12,2.45,1.73,3.64s1.2,2.38,1.83,3.55q1.91,3.51,4,6.85a87.07,87.07,0,0,0,9.26,12.39A53.19,53.19,0,0,0,310.59,131,38.13,38.13,0,0,0,324,136.16a9.7,9.7,0,0,0,1.78.28l1.8.21a25.81,25.81,0,0,0,3.63.15l1.83,0,1.84-.15,1.84-.15.92-.08.92-.15,3.69-.63c1.22-.26,2.44-.62,3.66-.92l1.85-.46c.61-.17,1.2-.41,1.81-.61l3.65-1.21c9.69-3.55,19-8.7,28.41-13.94-1.87,1.95-3.81,3.83-5.77,5.7s-4.14,3.49-6.24,5.23-4.45,3.15-6.71,4.7c-1.14.77-2.37,1.39-3.56,2.09s-2.37,1.4-3.63,2l-3.8,1.73c-.64.28-1.26.59-1.92.83l-2,.69c-1.34.44-2.65,1-4,1.32l-4.15,1-1,.23-1.07.14-2.14.25-2.14.25-2.18,0a30.25,30.25,0,0,1-4.36-.13l-2.18-.22a13.51,13.51,0,0,1-2.18-.33l-2.15-.48a17.52,17.52,0,0,1-2.13-.55c-1.38-.49-2.8-.89-4.15-1.47s-2.67-1.21-3.95-1.91-2.53-1.45-3.71-2.29a50.33,50.33,0,0,1-12.08-12,66.09,66.09,0,0,1-7.89-14.58A64.29,64.29,0,0,1,282.46,94.93Z"/><path d="M278.91,103.2s9.43,8.64,9.44,5.5,4.73-12.59,4.73-12.59l-9.46-2.61-4.71,5Z"/><path class="cls-10" d="M230.29,83.62A88.44,88.44,0,0,0,246.2,101.9c6,5,12.81,8.32,20,8.67a28.41,28.41,0,0,0,5.45-.16l1.37-.13,1.37-.28,1.37-.27a10.92,10.92,0,0,0,1.37-.33l2.74-.79c.9-.3,1.8-.68,2.7-1l1.37-.51c.45-.18.88-.41,1.33-.61l2.68-1.22c7.13-3.48,13.89-8.15,20.93-12.8a67.71,67.71,0,0,1-17.74,18.23A52.38,52.38,0,0,1,285.5,114c-1,.48-2,1-3,1.44l-3.16,1.18-.8.3-.82.21-1.66.41-1.66.41-1.71.25a24.87,24.87,0,0,1-3.45.33l-1.75,0a11.4,11.4,0,0,1-1.75,0c-1.16-.14-2.33-.19-3.48-.41s-2.3-.44-3.42-.77-2.23-.71-3.3-1.14-2.14-.91-3.15-1.47a38.9,38.9,0,0,1-10.55-8.37,50.19,50.19,0,0,1-7.33-10.76A47,47,0,0,1,230.29,83.62Z"/><path class="cls-10" d="M155,111.46a133.6,133.6,0,0,0,17.47,11.2,37.65,37.65,0,0,0,8.9,3.29,16.47,16.47,0,0,0,8.31-.22,17.09,17.09,0,0,0,7.05-4.47,40.6,40.6,0,0,0,5.73-7.62c3.41-5.74,6.1-12.18,9.21-18.71,0,1.8,0,3.61-.11,5.42s-.39,3.58-.62,5.39-.73,3.56-1.13,5.35a21.09,21.09,0,0,1-.78,2.65c-.3.88-.58,1.77-.9,2.64s-.76,1.73-1.14,2.59a23.53,23.53,0,0,1-1.3,2.55c-.5.83-1,1.67-1.52,2.49s-1.22,1.58-1.83,2.36a17.66,17.66,0,0,1-2.13,2.2,14.48,14.48,0,0,1-1.15,1.05l-1.28.93c-.43.3-.86.62-1.31.89l-1.45.74c-.49.23-1,.5-1.46.69l-1.55.51a15.81,15.81,0,0,1-3.18.68,18.26,18.26,0,0,1-3.21.19,9.19,9.19,0,0,1-1.58-.11l-1.56-.19c-1-.16-2-.43-3-.67a33.7,33.7,0,0,1-10.3-5.29,48.78,48.78,0,0,1-8.08-7.55,50.92,50.92,0,0,1-3.32-4.31A37.82,37.82,0,0,1,155,111.46Z"/><path class="cls-12" d="M185.65,87.85q35.9,60,80.28,0"/><path class="cls-10" d="M185.65,87.85c5.92,6.54,11.59,13.07,18.12,18.11A41.31,41.31,0,0,0,214,112a27.45,27.45,0,0,0,5.43,1.56,23.79,23.79,0,0,0,5.53.28,30.09,30.09,0,0,0,11-2.88,59.6,59.6,0,0,0,10.45-6.24c3.37-2.44,6.62-5.17,9.85-8l4.8-4.38c.81-.73,1.62-1.46,2.41-2.23s1.6-1.49,2.45-2.22c-1,2-2,4-3.13,5.85s-2.35,3.75-3.59,5.59a74,74,0,0,1-8.74,10.22,50.31,50.31,0,0,1-11.15,8.23,29.15,29.15,0,0,1-3.24,1.53c-1.08.51-2.26.84-3.41,1.25s-2.37.61-3.57.85a32.74,32.74,0,0,1-3.7.43,31,31,0,0,1-7.44-.52,32.42,32.42,0,0,1-7-2.36,39.47,39.47,0,0,1-11.4-8.3,57.88,57.88,0,0,1-8.21-10.78c-.59-.94-1.11-1.93-1.65-2.91s-1-2-1.49-3A64.22,64.22,0,0,1,185.65,87.85Z"/><path class="cls-17" d="M169.71,125.35s-18.12,21.53-58.26,12.08"/><path class="cls-17" d="M48.7,128C13.28,154,54,187,54,187c-28.33,14.17-9.44,44.86-9.44,44.86-9.45,9.45,0,26,0,26-2.36,35.41,20.7,30.69,20.7,30.69,7.48-1.32,8.26-39,8.26-39,16.53-14.17,2.36-35.42,2.36-35.42,14.17-14.16,2.36-33,2.36-33"/><path d="M97.1,115s26,40.14-23.61,56.67"/><path class="cls-12" d="M367.46,135.07c-7.08,4.73,7.08,28.34,18.89,26S374.54,130.35,367.46,135.07Z"/><path class="cls-12" d="M334.4,99.66c-3.54-11.81,43.69-26,47.23-14.17C384.74,95.87,337.52,110,334.4,99.66Z"/><path class="cls-11" d="M177.38,86.67c-8.54-9.61-29.79,9.28-21.25,18.89C160.85,110.86,182.1,92,177.38,86.67Z"/><path class="cls-11" d="M189.19,82c-2.82-7,32.6-21.22,35.42-14.17C227.05,73.88,191.63,88.05,189.19,82Z"/><path class="cls-11" d="M236.41,48.89s30.7-4.72,40.14,4.72c0,0,0-14.17-7.08-14.17,0,0,40.14-11.8,33.06-18.89,0,0-30.7-4.72-47.23,18.89C255.3,39.44,241.13,37.08,236.41,48.89Z"/><path class="cls-11" d="M191.55,37.08C190.18,28.4,235,21.32,236.41,30,238.16,41,193.29,48.12,191.55,37.08Z"/><path class="cls-11" d="M113.63,79.58a18.76,18.76,0,0,1,4.86-8.68A23.56,23.56,0,0,1,127,65.22a26.71,26.71,0,0,1,5-1.29,24.39,24.39,0,0,1,5-.36,37.49,37.49,0,0,1,5,.49c1.62.39,3.22.82,4.77,1.36-1.67.12-3.28.08-4.89.11l-2.39.17a20.67,20.67,0,0,0-2.36.2c-.77.13-1.55.24-2.32.34a6.46,6.46,0,0,0-1.15.21l-1.13.27A36.8,36.8,0,0,0,128,68a31.28,31.28,0,0,0-8,4.59A32.35,32.35,0,0,0,113.63,79.58Z"/><polygon class="cls-12" points="235.23 78.4 223.43 85.49 228.22 93.5 249.4 78.4 235.23 78.4"/><path d="M189.19,84.31s28.33,51.94,70.83,0C260,84.31,222.25,105.56,189.19,84.31Z"/></g><path class="cls-1" d="M81.11,328.21s-20.4-110-10.4-153l41-13-13,160Z"/><path class="cls-13" d="M85.11,331.29s-12.4-134.06,10.6-143.06,13-39,13-39L75.85,178.76l-11,17.18,3.81,77.91Z"/><path class="cls-15" d="M84.66,333.21S52.06,247,67.89,186.11"/><path class="cls-10" d="M69.11,176.94c5.74-3.48,11.25-6.78,16.43-10.38a72.42,72.42,0,0,0,13.8-11.9l.73-.83c.23-.28.45-.57.67-.86a21,21,0,0,0,1.27-1.75c.38-.61.84-1.18,1.17-1.8l1-1.87a28.22,28.22,0,0,0,2.63-8.09,35.07,35.07,0,0,0,.43-4.4,41.93,41.93,0,0,0-.23-4.58c-.09-.77-.1-1.57-.27-2.35s-.28-1.56-.4-2.37-.33-1.59-.51-2.39-.36-1.62-.5-2.46a30.67,30.67,0,0,1,5.48,8.57,29.62,29.62,0,0,1,1.66,5,29,29,0,0,1,.61,5.37,27.53,27.53,0,0,1-2,10.8c-.35.85-.78,1.66-1.17,2.5s-.9,1.58-1.35,2.38a24.77,24.77,0,0,1-1.55,2.24c-.27.36-.53.73-.81,1.09l-.87,1A48.37,48.37,0,0,1,88.61,172a60.17,60.17,0,0,1-9.54,3.38A46.52,46.52,0,0,1,69.11,176.94Z"/><path class="cls-10" d="M66.71,212.23a20.69,20.69,0,0,1-4.32-7.34,27.27,27.27,0,0,1-1.55-8.61,29.24,29.24,0,0,1,5.26-17.06A34.7,34.7,0,0,1,79.42,168a35.47,35.47,0,0,1,16.29-3.74c-4.19,3.82-8.31,6.92-11.95,10.29a62.39,62.39,0,0,0-9.44,10.39,39.05,39.05,0,0,0-5.69,12.21A60.67,60.67,0,0,0,66.71,212.23Z"/></g></g></svg>